<!-- Generated by IcoMoon.io -->
<svg version="1.1" xmlns="http://www.w3.org/2000/svg" width="58" height="32" viewBox="0 0 58 32">
<title>byb</title>
<path fill="#fff" d="M51.509 15.617c0.744-0.244 1.383-0.534 1.917-0.883s0.976-0.732 1.336-1.162c0.349-0.43 0.604-0.883 0.779-1.371 0.163-0.488 0.244-0.999 0.244-1.534 0-0.93-0.163-1.778-0.5-2.521s-0.86-1.383-1.569-1.906c-0.72-0.523-1.627-0.93-2.742-1.208s-2.463-0.43-4.032-0.43h-8.296v20.020l2.754 2.765h6.333c1.394 0 2.638-0.163 3.73-0.5s1.999-0.802 2.742-1.394c0.744-0.593 1.313-1.301 1.696-2.115 0.383-0.825 0.581-1.708 0.581-2.684-0.012-2.684-1.662-4.369-4.973-5.078zM43.12 7.89h3.823c1.511 0 2.614 0.256 3.323 0.755s1.069 1.348 1.069 2.533c0 1.15-0.395 1.987-1.174 2.51-0.79 0.523-1.94 0.79-3.463 0.79h-3.579v-6.588zM51.823 21.938c-0.151 0.418-0.395 0.79-0.732 1.104s-0.79 0.569-1.348 0.755c-0.558 0.186-1.255 0.279-2.091 0.279h-4.543v-6.681h4.532c0.79 0 1.452 0.070 2.010 0.221s1.011 0.36 1.359 0.639c0.36 0.279 0.616 0.616 0.779 1.011s0.256 0.837 0.256 1.336c0 0.476-0.070 0.918-0.221 1.336z"></path>
<path fill="#fff" d="M34.928 22.507l0.244-0.349c0.697-0.999 1.255-2.103 1.627-3.3 0.325-1.023 0.511-2.103 0.569-3.23h-1.882c-0.105 0-0.116 0.023-0.128 0.035-0.058 0.058-0.081 0.139-0.093 0.267-0.070 0.778-0.209 1.557-0.43 2.301-0.221 0.755-0.523 1.487-0.895 2.161l-0.383 0.72-6.751-6.797c-0.383-0.383-0.686-0.72-0.93-1.034-0.256-0.325-0.476-0.662-0.639-0.976-0.163-0.325-0.291-0.651-0.372-0.988-0.081-0.325-0.116-0.674-0.116-1.022 0-0.43 0.081-0.848 0.221-1.243 0.151-0.407 0.383-0.755 0.674-1.069 0.302-0.314 0.662-0.558 1.092-0.744s0.918-0.279 1.452-0.279c0.453 0 0.86 0.070 1.22 0.209 0.349 0.128 0.662 0.314 0.93 0.546 0.256 0.221 0.476 0.476 0.662 0.767 0.163 0.279 0.314 0.569 0.418 0.871 0.046 0.128 0.116 0.174 0.139 0.198 0.035 0.023 0.070 0.035 0.128 0.035h0.081l1.999-0.407c-0.081-0.418-0.221-0.825-0.418-1.22-0.267-0.534-0.651-1.022-1.127-1.441s-1.057-0.755-1.72-1.011c-0.662-0.256-1.441-0.383-2.301-0.383-0.941 0-1.801 0.139-2.533 0.418s-1.359 0.651-1.871 1.115c-0.5 0.465-0.883 1.011-1.15 1.638-0.267 0.639-0.407 1.313-0.407 2.022 0 0.674 0.116 1.359 0.36 2.045s0.639 1.406 1.174 2.15l0.372 0.511-0.604 0.267c-0.639 0.29-1.232 0.639-1.766 1.057-0.523 0.395-0.988 0.86-1.383 1.359-0.105 0.139-0.198 0.291-0.291 0.43-0.244 0.372-0.453 0.767-0.616 1.174-0.209 0.569-0.325 1.174-0.325 1.813 0 0.906 0.186 1.731 0.558 2.452 0.058 0.105 0.116 0.198 0.174 0.302 0.36 0.604 0.79 1.127 1.313 1.569 0.616 0.511 1.325 0.906 2.103 1.174s1.592 0.407 2.417 0.407c1.383 0 2.684-0.221 3.858-0.651 1.185-0.43 2.277-1.034 3.253-1.801l0.442-0.349 2.638 2.591c0.128 0.128 0.232 0.232 0.325 0.291 0.093 0.070 0.186 0.116 0.291 0.163 0.070 0.023 0.174 0.058 0.279 0.070s0.256 0.023 0.442 0.023h1.743v-0.802l-4.067-4.055zM31.558 23.309c-0.686 0.546-1.464 0.976-2.289 1.278-0.848 0.314-1.789 0.465-2.8 0.465-0.593 0-1.174-0.105-1.708-0.291-0.535-0.198-1.011-0.488-1.418-0.848-0.418-0.372-0.744-0.825-0.964-1.348-0.232-0.523-0.349-1.104-0.349-1.743 0-0.86 0.221-1.685 0.651-2.428s1.127-1.429 2.057-2.010l0.43-0.267 6.855 6.821-0.465 0.372z"></path>
<path fill="#fff" d="M19.079 13.583c0.349-0.43 0.604-0.883 0.779-1.371 0.163-0.488 0.244-0.999 0.244-1.534 0-0.93-0.163-1.778-0.5-2.521s-0.86-1.383-1.569-1.906c-0.72-0.523-1.627-0.93-2.742-1.208s-2.463-0.43-4.032-0.43h-8.308v22.786h9.086c1.394 0 2.638-0.163 3.73-0.5s1.999-0.802 2.742-1.394c0.244-0.198 0.465-0.407 0.662-0.627-0.186-0.256-0.349-0.523-0.5-0.813-0.442-0.86-0.674-1.848-0.674-2.916 0-0.755 0.128-1.476 0.383-2.161 0.232-0.627 0.558-1.208 0.964-1.755-0.825-0.744-1.987-1.278-3.509-1.604 0.744-0.244 1.383-0.534 1.917-0.883s0.976-0.732 1.325-1.162zM7.425 7.89h3.823c1.511 0 2.614 0.256 3.323 0.755s1.069 1.348 1.069 2.533c0 1.15-0.395 1.987-1.174 2.51-0.79 0.523-1.94 0.79-3.463 0.79h-3.579v-6.588zM16.105 19.265c0.163 0.395 0.256 0.837 0.256 1.336 0 0.476-0.070 0.918-0.221 1.336s-0.395 0.79-0.732 1.104c-0.337 0.314-0.79 0.569-1.348 0.755s-1.255 0.279-2.091 0.279h-4.543v-6.681h4.52c0.79 0 1.452 0.070 2.010 0.221s1.011 0.36 1.359 0.639c0.372 0.291 0.627 0.627 0.79 1.011z"></path>
</svg>
