<!-- Generated by IcoMoon.io -->
<svg version="1.1" xmlns="http://www.w3.org/2000/svg" width="32" height="32" viewBox="0 0 32 32">
<title>garrafa</title>
<path d="M23.402 28.421h-14.943c-0.221 0-0.407 0.186-0.407 0.407v1.325c0 0.105 0.046 0.209 0.116 0.291 0.081 0.081 0.186 0.116 0.29 0.116h14.931c0.221 0 0.407-0.186 0.407-0.407v-1.325c0.012-0.221-0.174-0.407-0.395-0.407z"></path>
<path d="M24.575 18.254h-17.15c-0.221 0-0.407 0.186-0.407 0.407v7.657c0 0.128 0.058 0.244 0.151 0.325l1.104 0.883c0.070 0.058 0.163 0.093 0.256 0.093h14.943c0.093 0 0.186-0.035 0.256-0.093l1.104-0.883c0.093-0.081 0.151-0.198 0.151-0.325v-7.657c0-0.221-0.186-0.407-0.407-0.407z"></path>
<path d="M24.831 9.063l-1.104-0.883c-0.070-0.058-0.163-0.093-0.256-0.093h-14.943c-0.093 0-0.186 0.035-0.256 0.093l-1.104 0.883c-0.093 0.081-0.151 0.198-0.151 0.325v7.646c0 0.221 0.186 0.407 0.407 0.407h17.139c0.221 0 0.407-0.186 0.407-0.407v-7.657c0.012-0.128-0.046-0.244-0.139-0.314z"></path>
<path d="M11.654 7.274h8.703c0.221 0 0.407-0.186 0.407-0.407v-1.139c0-0.221-0.186-0.407-0.407-0.407h-0.813v-2.312h0.813c0.221 0 0.407-0.186 0.407-0.407v-0.755c0-0.221-0.186-0.407-0.407-0.407h-8.703c-0.221 0-0.407 0.186-0.407 0.407v1.139c0 0.221 0.186 0.407 0.407 0.407h0.72v1.917h-0.72c-0.221 0-0.407 0.186-0.407 0.407v1.139c-0.012 0.232 0.174 0.418 0.407 0.418z"></path>
</svg>
