<svg aria-hidden="true" style="position: absolute; width: 0; height: 0; overflow: hidden;" version="1.1" xmlns="http://www.w3.org/2000/svg" xmlns:xlink="http://www.w3.org/1999/xlink">
<defs>
    <symbol id="icon-users-solid" viewBox="0 0 40 32">
        <path d="M6 14c2.206 0 4-1.794 4-4s-1.794-4-4-4-4 1.794-4 4 1.794 4 4 4zM34 14c2.206 0 4-1.794 4-4s-1.794-4-4-4-4 1.794-4 4 1.794 4 4 4zM36 16h-4c-1.1 0-2.094 0.444-2.819 1.163 2.519 1.381 4.306 3.875 4.694 6.837h4.125c1.106 0 2-0.894 2-2v-2c0-2.206-1.794-4-4-4zM20 16c3.869 0 7-3.131 7-7s-3.131-7-7-7-7 3.131-7 7 3.131 7 7 7zM24.8 18h-0.519c-1.3 0.625-2.744 1-4.281 1s-2.975-0.375-4.281-1h-0.519c-3.975 0-7.2 3.225-7.2 7.2v1.8c0 1.656 1.344 3 3 3h18c1.656 0 3-1.344 3-3v-1.8c0-3.975-3.225-7.2-7.2-7.2zM10.819 17.163c-0.725-0.719-1.719-1.163-2.819-1.163h-4c-2.206 0-4 1.794-4 4v2c0 1.106 0.894 2 2 2h4.119c0.394-2.962 2.181-5.456 4.7-6.837z"></path>
    </symbol>
    <symbol id="icon-user-plus-solid" viewBox="0 0 40 32">
        <path d="M39 13h-4v-4c0-0.55-0.45-1-1-1h-2c-0.55 0-1 0.45-1 1v4h-4c-0.55 0-1 0.45-1 1v2c0 0.55 0.45 1 1 1h4v4c0 0.55 0.45 1 1 1h2c0.55 0 1-0.45 1-1v-4h4c0.55 0 1-0.45 1-1v-2c0-0.55-0.45-1-1-1zM14 16c4.419 0 8-3.581 8-8s-3.581-8-8-8-8 3.581-8 8 3.581 8 8 8zM19.6 18h-1.044c-1.387 0.637-2.931 1-4.556 1s-3.162-0.363-4.556-1h-1.044c-4.638 0-8.4 3.762-8.4 8.4v2.6c0 1.656 1.344 3 3 3h22c1.656 0 3-1.344 3-3v-2.6c0-4.637-3.762-8.4-8.4-8.4z"></path>
    </symbol>
    <symbol id="icon-check-solid" viewBox="0 0 32 32">
        <path d="M10.869 27.463l-10.4-10.4c-0.625-0.625-0.625-1.638 0-2.263l2.263-2.263c0.625-0.625 1.638-0.625 2.263 0l7.006 7.006 15.006-15.006c0.625-0.625 1.638-0.625 2.263 0l2.263 2.263c0.625 0.625 0.625 1.638 0 2.263l-18.4 18.4c-0.625 0.625-1.638 0.625-2.263-0z"></path>
    </symbol>
    <symbol id="icon-ban-solid" viewBox="0 0 32 32">
        <path d="M16 0.5c-8.56 0-15.5 6.94-15.5 15.5s6.94 15.5 15.5 15.5 15.5-6.94 15.5-15.5-6.94-15.5-15.5-15.5zM24.132 7.868c4.090 4.090 4.375 10.343 1.292 14.727l-16.020-16.020c4.388-3.085 10.639-2.796 14.727 1.292zM7.868 24.132c-4.090-4.090-4.375-10.343-1.292-14.727l16.020 16.020c-4.388 3.085-10.639 2.796-14.727-1.292z"></path>
    </symbol>
    <symbol id="icon-pen-solid" viewBox="0 0 32 32">
        <path d="M18.171 5.827l8.001 8.001-17.374 17.374-7.134 0.788c-0.955 0.106-1.762-0.702-1.656-1.657l0.794-7.139 17.369-17.367zM31.121 4.636l-3.757-3.757c-1.172-1.172-3.073-1.172-4.244 0l-3.534 3.534 8.001 8.001 3.534-3.534c1.172-1.173 1.172-3.072 0-4.244z"></path>
    </symbol>
    <symbol id="icon-plus-solid" viewBox="0 0 28 32">
        <path d="M26 13h-9v-9c0-1.104-0.896-2-2-2h-2c-1.104 0-2 0.896-2 2v9h-9c-1.104 0-2 0.896-2 2v2c0 1.104 0.896 2 2 2h9v9c0 1.104 0.896 2 2 2h2c1.104 0 2-0.896 2-2v-9h9c1.104 0 2-0.896 2-2v-2c0-1.104-0.896-2-2-2z"></path>
    </symbol>
<symbol id="icon-ellipsis-h" viewBox="0 0 22 28">
<title>ellipsis-h</title>
<path d="M6 11.5v3c0 0.828-0.672 1.5-1.5 1.5h-3c-0.828 0-1.5-0.672-1.5-1.5v-3c0-0.828 0.672-1.5 1.5-1.5h3c0.828 0 1.5 0.672 1.5 1.5zM14 11.5v3c0 0.828-0.672 1.5-1.5 1.5h-3c-0.828 0-1.5-0.672-1.5-1.5v-3c0-0.828 0.672-1.5 1.5-1.5h3c0.828 0 1.5 0.672 1.5 1.5zM22 11.5v3c0 0.828-0.672 1.5-1.5 1.5h-3c-0.828 0-1.5-0.672-1.5-1.5v-3c0-0.828 0.672-1.5 1.5-1.5h3c0.828 0 1.5 0.672 1.5 1.5z"></path>
</symbol>
<symbol id="icon-book-solid" viewBox="0 0 28 32">
<title>book-solid</title>
<path d="M28 22.5v-21c0-0.831-0.669-1.5-1.5-1.5h-20.5c-3.313 0-6 2.688-6 6v20c0 3.313 2.688 6 6 6h20.5c0.831 0 1.5-0.669 1.5-1.5v-1c0-0.469-0.219-0.894-0.556-1.169-0.262-0.962-0.262-3.706 0-4.669 0.337-0.269 0.556-0.694 0.556-1.163zM8 8.375c0-0.206 0.169-0.375 0.375-0.375h13.25c0.206 0 0.375 0.169 0.375 0.375v1.25c0 0.206-0.169 0.375-0.375 0.375h-13.25c-0.206 0-0.375-0.169-0.375-0.375v-1.25zM8 12.375c0-0.206 0.169-0.375 0.375-0.375h13.25c0.206 0 0.375 0.169 0.375 0.375v1.25c0 0.206-0.169 0.375-0.375 0.375h-13.25c-0.206 0-0.375-0.169-0.375-0.375v-1.25zM23.837 28h-17.837c-1.106 0-2-0.894-2-2 0-1.1 0.9-2 2-2h17.837c-0.119 1.069-0.119 2.931 0 4z"></path>
</symbol>
<symbol id="icon-box-open-solid" viewBox="0 0 40 32">
<title>box-open-solid</title>
<path d="M3.325 2.563l-3.219 6.425c-0.287 0.575 0.019 1.262 0.631 1.438l12.369 3.531c0.444 0.125 0.919-0.063 1.156-0.456l5.737-9.5-15.637-1.994c-0.431-0.050-0.844 0.169-1.038 0.556zM39.894 8.988l-3.219-6.425c-0.194-0.388-0.612-0.613-1.044-0.556l-15.631 1.994 5.731 9.506c0.238 0.394 0.712 0.581 1.156 0.456l12.369-3.531c0.619-0.181 0.919-0.869 0.638-1.444zM26.606 16c-1.056 0-2.050-0.563-2.587-1.463l-4.019-6.662-4.012 6.662c-0.544 0.906-1.537 1.469-2.594 1.469-0.281 0-0.563-0.037-0.831-0.119l-8.563-2.45v11.125c0 0.919 0.625 1.719 1.513 1.938l13.512 3.381c0.637 0.156 1.306 0.156 1.938 0l13.525-3.381c0.888-0.225 1.513-1.025 1.513-1.938v-11.125l-8.563 2.444c-0.269 0.081-0.55 0.119-0.831 0.119z"></path>
</symbol>
<symbol id="icon-byb" viewBox="0 0 58 32">
<title>byb</title>
<path fill="#fff" style="fill: var(--color1, #fff)" d="M51.509 15.617c0.744-0.244 1.383-0.534 1.917-0.883s0.976-0.732 1.336-1.162c0.349-0.43 0.604-0.883 0.779-1.371 0.163-0.488 0.244-0.999 0.244-1.534 0-0.93-0.163-1.778-0.5-2.521s-0.86-1.383-1.569-1.906c-0.72-0.523-1.627-0.93-2.742-1.208s-2.463-0.43-4.032-0.43h-8.296v20.020l2.754 2.765h6.333c1.394 0 2.638-0.163 3.73-0.5s1.999-0.802 2.742-1.394c0.744-0.593 1.313-1.301 1.696-2.115 0.383-0.825 0.581-1.708 0.581-2.684-0.012-2.684-1.662-4.369-4.973-5.078zM43.12 7.89h3.823c1.511 0 2.614 0.256 3.323 0.755s1.069 1.348 1.069 2.533c0 1.15-0.395 1.987-1.174 2.51-0.79 0.523-1.94 0.79-3.463 0.79h-3.579v-6.588zM51.823 21.938c-0.151 0.418-0.395 0.79-0.732 1.104s-0.79 0.569-1.348 0.755c-0.558 0.186-1.255 0.279-2.091 0.279h-4.543v-6.681h4.532c0.79 0 1.452 0.070 2.010 0.221s1.011 0.36 1.359 0.639c0.36 0.279 0.616 0.616 0.779 1.011s0.256 0.837 0.256 1.336c0 0.476-0.070 0.918-0.221 1.336z"></path>
<path fill="#fff" style="fill: var(--color1, #fff)" d="M34.928 22.507l0.244-0.349c0.697-0.999 1.255-2.103 1.627-3.3 0.325-1.023 0.511-2.103 0.569-3.23h-1.882c-0.105 0-0.116 0.023-0.128 0.035-0.058 0.058-0.081 0.139-0.093 0.267-0.070 0.778-0.209 1.557-0.43 2.301-0.221 0.755-0.523 1.487-0.895 2.161l-0.383 0.72-6.751-6.797c-0.383-0.383-0.686-0.72-0.93-1.034-0.256-0.325-0.476-0.662-0.639-0.976-0.163-0.325-0.291-0.651-0.372-0.988-0.081-0.325-0.116-0.674-0.116-1.022 0-0.43 0.081-0.848 0.221-1.243 0.151-0.407 0.383-0.755 0.674-1.069 0.302-0.314 0.662-0.558 1.092-0.744s0.918-0.279 1.452-0.279c0.453 0 0.86 0.070 1.22 0.209 0.349 0.128 0.662 0.314 0.93 0.546 0.256 0.221 0.476 0.476 0.662 0.767 0.163 0.279 0.314 0.569 0.418 0.871 0.046 0.128 0.116 0.174 0.139 0.198 0.035 0.023 0.070 0.035 0.128 0.035h0.081l1.999-0.407c-0.081-0.418-0.221-0.825-0.418-1.22-0.267-0.534-0.651-1.022-1.127-1.441s-1.057-0.755-1.72-1.011c-0.662-0.256-1.441-0.383-2.301-0.383-0.941 0-1.801 0.139-2.533 0.418s-1.359 0.651-1.871 1.115c-0.5 0.465-0.883 1.011-1.15 1.638-0.267 0.639-0.407 1.313-0.407 2.022 0 0.674 0.116 1.359 0.36 2.045s0.639 1.406 1.174 2.15l0.372 0.511-0.604 0.267c-0.639 0.29-1.232 0.639-1.766 1.057-0.523 0.395-0.988 0.86-1.383 1.359-0.105 0.139-0.198 0.291-0.291 0.43-0.244 0.372-0.453 0.767-0.616 1.174-0.209 0.569-0.325 1.174-0.325 1.813 0 0.906 0.186 1.731 0.558 2.452 0.058 0.105 0.116 0.198 0.174 0.302 0.36 0.604 0.79 1.127 1.313 1.569 0.616 0.511 1.325 0.906 2.103 1.174s1.592 0.407 2.417 0.407c1.383 0 2.684-0.221 3.858-0.651 1.185-0.43 2.277-1.034 3.253-1.801l0.442-0.349 2.638 2.591c0.128 0.128 0.232 0.232 0.325 0.291 0.093 0.070 0.186 0.116 0.291 0.163 0.070 0.023 0.174 0.058 0.279 0.070s0.256 0.023 0.442 0.023h1.743v-0.802l-4.067-4.055zM31.558 23.309c-0.686 0.546-1.464 0.976-2.289 1.278-0.848 0.314-1.789 0.465-2.8 0.465-0.593 0-1.174-0.105-1.708-0.291-0.535-0.198-1.011-0.488-1.418-0.848-0.418-0.372-0.744-0.825-0.964-1.348-0.232-0.523-0.349-1.104-0.349-1.743 0-0.86 0.221-1.685 0.651-2.428s1.127-1.429 2.057-2.010l0.43-0.267 6.855 6.821-0.465 0.372z"></path>
<path fill="#fff" style="fill: var(--color1, #fff)" d="M19.079 13.583c0.349-0.43 0.604-0.883 0.779-1.371 0.163-0.488 0.244-0.999 0.244-1.534 0-0.93-0.163-1.778-0.5-2.521s-0.86-1.383-1.569-1.906c-0.72-0.523-1.627-0.93-2.742-1.208s-2.463-0.43-4.032-0.43h-8.308v22.786h9.086c1.394 0 2.638-0.163 3.73-0.5s1.999-0.802 2.742-1.394c0.244-0.198 0.465-0.407 0.662-0.627-0.186-0.256-0.349-0.523-0.5-0.813-0.442-0.86-0.674-1.848-0.674-2.916 0-0.755 0.128-1.476 0.383-2.161 0.232-0.627 0.558-1.208 0.964-1.755-0.825-0.744-1.987-1.278-3.509-1.604 0.744-0.244 1.383-0.534 1.917-0.883s0.976-0.732 1.325-1.162zM7.425 7.89h3.823c1.511 0 2.614 0.256 3.323 0.755s1.069 1.348 1.069 2.533c0 1.15-0.395 1.987-1.174 2.51-0.79 0.523-1.94 0.79-3.463 0.79h-3.579v-6.588zM16.105 19.265c0.163 0.395 0.256 0.837 0.256 1.336 0 0.476-0.070 0.918-0.221 1.336s-0.395 0.79-0.732 1.104c-0.337 0.314-0.79 0.569-1.348 0.755s-1.255 0.279-2.091 0.279h-4.543v-6.681h4.52c0.79 0 1.452 0.070 2.010 0.221s1.011 0.36 1.359 0.639c0.372 0.291 0.627 0.627 0.79 1.011z"></path>
</symbol>
<symbol id="icon-chevron-left-solid" viewBox="0 0 20 32">
<title>chevron-left-solid</title>
<path d="M2.158 14.939l12.147-12.146c0.586-0.586 1.536-0.586 2.121 0l1.417 1.417c0.585 0.585 0.586 1.532 0.003 2.119l-9.627 9.671 9.626 9.672c0.584 0.586 0.582 1.534-0.003 2.119l-1.417 1.417c-0.586 0.586-1.536 0.586-2.121 0l-12.146-12.147c-0.586-0.586-0.586-1.536 0-2.121z"></path>
</symbol>
<symbol id="icon-chevron-right-solid" viewBox="0 0 20 32">
<title>chevron-right-solid</title>
<path d="M17.842 17.061l-12.146 12.146c-0.586 0.586-1.536 0.586-2.121 0l-1.417-1.417c-0.585-0.585-0.586-1.533-0.002-2.119l9.626-9.672-9.626-9.672c-0.583-0.586-0.582-1.534 0.002-2.119l1.417-1.417c0.586-0.586 1.536-0.586 2.121 0l12.146 12.146c0.586 0.586 0.586 1.536 0 2.121z"></path>
</symbol>
<symbol id="icon-dollar-sign-solid" viewBox="0 0 18 32">
<title>dollar-sign-solid</title>
<path d="M13.075 14.588l-6.75-1.975c-0.781-0.225-1.325-0.956-1.325-1.769 0-1.019 0.825-1.844 1.844-1.844h4.144c0.762 0 1.512 0.231 2.138 0.656 0.381 0.256 0.894 0.194 1.219-0.125l2.175-2.125c0.444-0.431 0.381-1.15-0.113-1.531-1.531-1.2-3.444-1.869-5.406-1.875v-3c0-0.55-0.45-1-1-1h-2c-0.55 0-1 0.45-1 1v3h-0.156c-3.981 0-7.181 3.419-6.813 7.475 0.263 2.881 2.462 5.225 5.237 6.037l6.406 1.875c0.781 0.231 1.325 0.956 1.325 1.769 0 1.019-0.825 1.844-1.844 1.844h-4.144c-0.763 0-1.513-0.231-2.138-0.656-0.381-0.256-0.894-0.194-1.219 0.125l-2.175 2.125c-0.444 0.431-0.381 1.15 0.113 1.531 1.531 1.2 3.444 1.869 5.406 1.875v3c0 0.55 0.45 1 1 1h2c0.55 0 1-0.45 1-1v-3.012c2.912-0.056 5.644-1.788 6.606-4.544 1.344-3.85-0.913-7.8-4.531-8.856z"></path>
</symbol>
<symbol id="icon-home-solid" viewBox="0 0 36 32">
<title>home-solid</title>
<path d="M30.5 19.544v8.956c0 0.831-0.669 1.5-1.5 1.5h-7.25c-0.413 0-0.75-0.337-0.75-0.75v-7c0-0.413-0.337-0.75-0.75-0.75h-4.5c-0.412 0-0.75 0.337-0.75 0.75v7c0 0.413-0.338 0.75-0.75 0.75h-7.25c-0.831 0-1.5-0.669-1.5-1.5v-8.956c0-0.225 0.1-0.438 0.275-0.581l11.75-9.675c0.275-0.225 0.675-0.225 0.956 0l11.75 9.675c0.169 0.144 0.269 0.356 0.269 0.581zM35.725 15.738l-5.225-4.306v-8.656c0-0.413-0.337-0.75-0.75-0.75h-3.5c-0.413 0-0.75 0.337-0.75 0.75v4.537l-5.594-4.606c-1.106-0.913-2.706-0.913-3.813 0l-15.819 13.031c-0.319 0.262-0.362 0.738-0.1 1.056l1.594 1.938c0.263 0.319 0.738 0.363 1.056 0.1l14.7-12.106c0.275-0.225 0.675-0.225 0.956 0l14.7 12.106c0.319 0.262 0.794 0.219 1.056-0.1l1.594-1.938c0.263-0.325 0.212-0.794-0.106-1.056z"></path>
</symbol>
<symbol id="icon-list-ul-solid" viewBox="0 0 32 32">
<title>list-ul-solid</title>
<path d="M6 6c0 1.657-1.343 3-3 3s-3-1.343-3-3 1.343-3 3-3 3 1.343 3 3zM3 13c-1.657 0-3 1.343-3 3s1.343 3 3 3 3-1.343 3-3-1.343-3-3-3zM3 23c-1.657 0-3 1.343-3 3s1.343 3 3 3 3-1.343 3-3-1.343-3-3-3zM9 8.25h22c0.552 0 1-0.448 1-1v-2.5c0-0.552-0.448-1-1-1h-22c-0.552 0-1 0.448-1 1v2.5c0 0.552 0.448 1 1 1zM9 18.25h22c0.552 0 1-0.448 1-1v-2.5c0-0.552-0.448-1-1-1h-22c-0.552 0-1 0.448-1 1v2.5c0 0.552 0.448 1 1 1zM9 28.25h22c0.552 0 1-0.448 1-1v-2.5c0-0.552-0.448-1-1-1h-22c-0.552 0-1 0.448-1 1v2.5c0 0.552 0.448 1 1 1z"></path>
</symbol>
<symbol id="icon-power-off-solid" viewBox="0 0 32 32">
<title>power-off-solid</title>
<path d="M25 3.381c3.938 2.812 6.5 7.412 6.5 12.619 0 8.55-6.925 15.481-15.469 15.5-8.531 0.019-15.519-6.938-15.531-15.475-0.006-5.206 2.556-9.819 6.487-12.637 0.731-0.519 1.75-0.3 2.188 0.481l0.988 1.756c0.369 0.656 0.194 1.487-0.412 1.938-2.594 1.925-4.25 4.975-4.25 8.431-0.006 5.769 4.656 10.506 10.5 10.506 5.725 0 10.538-4.637 10.5-10.569-0.019-3.237-1.544-6.362-4.256-8.375-0.606-0.45-0.775-1.281-0.406-1.931l0.988-1.756c0.438-0.775 1.45-1.006 2.175-0.487zM18.5 16.5v-15c0-0.831-0.669-1.5-1.5-1.5h-2c-0.831 0-1.5 0.669-1.5 1.5v15c0 0.831 0.669 1.5 1.5 1.5h2c0.831 0 1.5-0.669 1.5-1.5z"></path>
</symbol>
<symbol id="icon-shopping-cart-solid" viewBox="0 0 36 32">
<title>shopping-cart-solid</title>
<path d="M33.008 18.832l2.955-13c0.213-0.939-0.5-1.832-1.463-1.832h-24.549l-0.573-2.801c-0.143-0.698-0.757-1.199-1.47-1.199h-6.408c-0.828 0-1.5 0.672-1.5 1.5v1c0 0.828 0.672 1.5 1.5 1.5h4.368l4.391 21.465c-1.050 0.604-1.758 1.737-1.758 3.035 0 1.933 1.567 3.5 3.5 3.5s3.5-1.567 3.5-3.5c0-0.98-0.403-1.865-1.052-2.5h13.103c-0.648 0.635-1.051 1.52-1.051 2.5 0 1.933 1.567 3.5 3.5 3.5s3.5-1.567 3.5-3.5c0-1.386-0.806-2.583-1.974-3.15l0.345-1.517c0.213-0.939-0.5-1.832-1.463-1.832h-16.776l-0.409-2h18.322c0.7 0 1.307-0.485 1.463-1.168z"></path>
</symbol>
<symbol id="icon-table-solid" viewBox="0 0 32 32">
<title>table-solid</title>
<path d="M29 2h-26c-1.657 0-3 1.343-3 3v22c0 1.657 1.343 3 3 3h26c1.657 0 3-1.343 3-3v-22c0-1.657-1.343-3-3-3zM14 26h-10v-6h10v6zM14 16h-10v-6h10v6zM28 26h-10v-6h10v6zM28 16h-10v-6h10v6z"></path>
</symbol>
<symbol id="icon-users-solid" viewBox="0 0 40 32">
<title>users-solid</title>
<path d="M6 14c2.206 0 4-1.794 4-4s-1.794-4-4-4-4 1.794-4 4 1.794 4 4 4zM34 14c2.206 0 4-1.794 4-4s-1.794-4-4-4-4 1.794-4 4 1.794 4 4 4zM36 16h-4c-1.1 0-2.094 0.444-2.819 1.163 2.519 1.381 4.306 3.875 4.694 6.837h4.125c1.106 0 2-0.894 2-2v-2c0-2.206-1.794-4-4-4zM20 16c3.869 0 7-3.131 7-7s-3.131-7-7-7-7 3.131-7 7 3.131 7 7 7zM24.8 18h-0.519c-1.3 0.625-2.744 1-4.281 1s-2.975-0.375-4.281-1h-0.519c-3.975 0-7.2 3.225-7.2 7.2v1.8c0 1.656 1.344 3 3 3h18c1.656 0 3-1.344 3-3v-1.8c0-3.975-3.225-7.2-7.2-7.2zM10.819 17.163c-0.725-0.719-1.719-1.163-2.819-1.163h-4c-2.206 0-4 1.794-4 4v2c0 1.106 0.894 2 2 2h4.119c0.394-2.962 2.181-5.456 4.7-6.837z"></path>
</symbol>
<symbol id="icon-garrafa" viewBox="0 0 32 32">
<title>garrafa</title>
<path d="M23.402 28.421h-14.943c-0.221 0-0.407 0.186-0.407 0.407v1.325c0 0.105 0.046 0.209 0.116 0.291 0.081 0.081 0.186 0.116 0.29 0.116h14.931c0.221 0 0.407-0.186 0.407-0.407v-1.325c0.012-0.221-0.174-0.407-0.395-0.407z"></path>
<path d="M24.575 18.254h-17.15c-0.221 0-0.407 0.186-0.407 0.407v7.657c0 0.128 0.058 0.244 0.151 0.325l1.104 0.883c0.070 0.058 0.163 0.093 0.256 0.093h14.943c0.093 0 0.186-0.035 0.256-0.093l1.104-0.883c0.093-0.081 0.151-0.198 0.151-0.325v-7.657c0-0.221-0.186-0.407-0.407-0.407z"></path>
<path d="M24.831 9.063l-1.104-0.883c-0.070-0.058-0.163-0.093-0.256-0.093h-14.943c-0.093 0-0.186 0.035-0.256 0.093l-1.104 0.883c-0.093 0.081-0.151 0.198-0.151 0.325v7.646c0 0.221 0.186 0.407 0.407 0.407h17.139c0.221 0 0.407-0.186 0.407-0.407v-7.657c0.012-0.128-0.046-0.244-0.139-0.314z"></path>
<path d="M11.654 7.274h8.703c0.221 0 0.407-0.186 0.407-0.407v-1.139c0-0.221-0.186-0.407-0.407-0.407h-0.813v-2.312h0.813c0.221 0 0.407-0.186 0.407-0.407v-0.755c0-0.221-0.186-0.407-0.407-0.407h-8.703c-0.221 0-0.407 0.186-0.407 0.407v1.139c0 0.221 0.186 0.407 0.407 0.407h0.72v1.917h-0.72c-0.221 0-0.407 0.186-0.407 0.407v1.139c-0.012 0.232 0.174 0.418 0.407 0.418z"></path>
</symbol>
<symbol id="icon-location" viewBox="0 0 32 32">
<title>location</title>
<path d="M16 0c-5.523 0-10 4.477-10 10 0 10 10 22 10 22s10-12 10-22c0-5.523-4.477-10-10-10zM16 16c-3.314 0-6-2.686-6-6s2.686-6 6-6 6 2.686 6 6-2.686 6-6 6z"></path>
</symbol>
<symbol id="icon-search" viewBox="0 0 32 32">
<title>search</title>
<path d="M31.008 27.231l-7.58-6.447c-0.784-0.705-1.622-1.029-2.299-0.998 1.789-2.096 2.87-4.815 2.87-7.787 0-6.627-5.373-12-12-12s-12 5.373-12 12 5.373 12 12 12c2.972 0 5.691-1.081 7.787-2.87-0.031 0.677 0.293 1.515 0.998 2.299l6.447 7.58c1.104 1.226 2.907 1.33 4.007 0.23s0.997-2.903-0.23-4.007zM12 20c-4.418 0-8-3.582-8-8s3.582-8 8-8 8 3.582 8 8-3.582 8-8 8z"></path>
</symbol>
<symbol id="icon-cross" viewBox="0 0 32 32">
<title>cross</title>
<path d="M31.708 25.708c-0-0-0-0-0-0l-9.708-9.708 9.708-9.708c0-0 0-0 0-0 0.105-0.105 0.18-0.227 0.229-0.357 0.133-0.356 0.057-0.771-0.229-1.057l-4.586-4.586c-0.286-0.286-0.702-0.361-1.057-0.229-0.13 0.048-0.252 0.124-0.357 0.228 0 0-0 0-0 0l-9.708 9.708-9.708-9.708c-0-0-0-0-0-0-0.105-0.104-0.227-0.18-0.357-0.228-0.356-0.133-0.771-0.057-1.057 0.229l-4.586 4.586c-0.286 0.286-0.361 0.702-0.229 1.057 0.049 0.13 0.124 0.252 0.229 0.357 0 0 0 0 0 0l9.708 9.708-9.708 9.708c-0 0-0 0-0 0-0.104 0.105-0.18 0.227-0.229 0.357-0.133 0.355-0.057 0.771 0.229 1.057l4.586 4.586c0.286 0.286 0.702 0.361 1.057 0.229 0.13-0.049 0.252-0.124 0.357-0.229 0-0 0-0 0-0l9.708-9.708 9.708 9.708c0 0 0 0 0 0 0.105 0.105 0.227 0.18 0.357 0.229 0.356 0.133 0.771 0.057 1.057-0.229l4.586-4.586c0.286-0.286 0.362-0.702 0.229-1.057-0.049-0.13-0.124-0.252-0.229-0.357z"></path>
</symbol>
<symbol id="icon-checkmark" viewBox="0 0 32 32">
<title>checkmark</title>
<path d="M27 4l-15 15-7-7-5 5 12 12 20-20z"></path>
</symbol>
</defs>
</svg>
